<?xml version="1.0" encoding="utf-8" standalone="no"?>
<!DOCTYPE svg PUBLIC "-//W3C//DTD SVG 1.1//EN"
  "http://www.w3.org/Graphics/SVG/1.1/DTD/svg11.dtd">
<svg xmlns:xlink="http://www.w3.org/1999/xlink" width="288pt" height="216pt" viewBox="0 0 288 216" xmlns="http://www.w3.org/2000/svg" version="1.1">
 <metadata>
  <rdf:RDF xmlns:dc="http://purl.org/dc/elements/1.1/" xmlns:cc="http://creativecommons.org/ns#" xmlns:rdf="http://www.w3.org/1999/02/22-rdf-syntax-ns#">
   <cc:Work>
    <dc:type rdf:resource="http://purl.org/dc/dcmitype/StillImage"/>
    <dc:date>2025-08-16T01:25:21.786195</dc:date>
    <dc:format>image/svg+xml</dc:format>
    <dc:creator>
     <cc:Agent>
      <dc:title>Matplotlib v3.10.5, https://matplotlib.org/</dc:title>
     </cc:Agent>
    </dc:creator>
   </cc:Work>
  </rdf:RDF>
 </metadata>
 <defs>
  <style type="text/css">*{stroke-linejoin: round; stroke-linecap: butt}</style>
 </defs>
 <g id="figure_1">
  <g id="patch_1">
   <path d="M 0 216 
L 288 216 
L 288 0 
L 0 0 
z
" style="fill: #ffffff"/>
  </g>
  <g id="axes_1">
   <g id="patch_2">
    <path d="M 18.887899 201.025354 
L 285.165354 201.025354 
L 285.165354 19.634646 
L 18.887899 19.634646 
z
" style="fill: #ffffff"/>
   </g>
   <g id="matplotlib.axis_1">
    <g id="xtick_1">
     <g id="line2d_1">
      <path d="M 20.963072 201.025354 
L 20.963072 19.634646 
" clip-path="url(#p88f9b8d405)" style="fill: none; stroke: #000000; stroke-opacity: 0.1; stroke-width: 0.5; stroke-linecap: square"/>
     </g>
     <g id="line2d_2">
      <defs>
       <path id="m154b62c580" d="M 0 0 
L 0 -3 
" style="stroke: #000000; stroke-width: 0.5"/>
      </defs>
      <g>
       <use xlink:href="#m154b62c580" x="20.963072" y="201.025354" style="stroke: #000000; stroke-width: 0.5"/>
      </g>
     </g>
     <g id="text_1">
      <!-- $-2$ -->
      <g transform="translate(15.043072 210.604104) scale(0.08 -0.08)">
       <defs>
        <path id="DejaVuSans-2212" d="M 678 2272 
L 4684 2272 
L 4684 1741 
L 678 1741 
L 678 2272 
z
" transform="scale(0.015625)"/>
        <path id="DejaVuSans-32" d="M 1228 531 
L 3431 531 
L 3431 0 
L 469 0 
L 469 531 
Q 828 903 1448 1529 
Q 2069 2156 2228 2338 
Q 2531 2678 2651 2914 
Q 2772 3150 2772 3378 
Q 2772 3750 2511 3984 
Q 2250 4219 1831 4219 
Q 1534 4219 1204 4116 
Q 875 4013 500 3803 
L 500 4441 
Q 881 4594 1212 4672 
Q 1544 4750 1819 4750 
Q 2544 4750 2975 4387 
Q 3406 4025 3406 3419 
Q 3406 3131 3298 2873 
Q 3191 2616 2906 2266 
Q 2828 2175 2409 1742 
Q 1991 1309 1228 531 
z
" transform="scale(0.015625)"/>
       </defs>
       <use xlink:href="#DejaVuSans-2212" transform="translate(0 0.78125)"/>
       <use xlink:href="#DejaVuSans-32" transform="translate(83.789062 0.78125)"/>
      </g>
     </g>
    </g>
    <g id="xtick_2">
     <g id="line2d_3">
      <path d="M 75.572886 201.025354 
L 75.572886 19.634646 
" clip-path="url(#p88f9b8d405)" style="fill: none; stroke: #000000; stroke-opacity: 0.1; stroke-width: 0.5; stroke-linecap: square"/>
     </g>
     <g id="line2d_4">
      <g>
       <use xlink:href="#m154b62c580" x="75.572886" y="201.025354" style="stroke: #000000; stroke-width: 0.5"/>
      </g>
     </g>
     <g id="text_2">
      <!-- $-1$ -->
      <g transform="translate(69.652886 210.604104) scale(0.08 -0.08)">
       <defs>
        <path id="DejaVuSans-31" d="M 794 531 
L 1825 531 
L 1825 4091 
L 703 3866 
L 703 4441 
L 1819 4666 
L 2450 4666 
L 2450 531 
L 3481 531 
L 3481 0 
L 794 0 
L 794 531 
z
" transform="scale(0.015625)"/>
       </defs>
       <use xlink:href="#DejaVuSans-2212" transform="translate(0 0.09375)"/>
       <use xlink:href="#DejaVuSans-31" transform="translate(83.789062 0.09375)"/>
      </g>
     </g>
    </g>
    <g id="xtick_3">
     <g id="line2d_5">
      <path d="M 130.182701 201.025354 
L 130.182701 19.634646 
" clip-path="url(#p88f9b8d405)" style="fill: none; stroke: #000000; stroke-opacity: 0.1; stroke-width: 0.5; stroke-linecap: square"/>
     </g>
     <g id="line2d_6">
      <g>
       <use xlink:href="#m154b62c580" x="130.182701" y="201.025354" style="stroke: #000000; stroke-width: 0.5"/>
      </g>
     </g>
     <g id="text_3">
      <!-- $0$ -->
      <g transform="translate(127.622701 210.604104) scale(0.08 -0.08)">
       <defs>
        <path id="DejaVuSans-30" d="M 2034 4250 
Q 1547 4250 1301 3770 
Q 1056 3291 1056 2328 
Q 1056 1369 1301 889 
Q 1547 409 2034 409 
Q 2525 409 2770 889 
Q 3016 1369 3016 2328 
Q 3016 3291 2770 3770 
Q 2525 4250 2034 4250 
z
M 2034 4750 
Q 2819 4750 3233 4129 
Q 3647 3509 3647 2328 
Q 3647 1150 3233 529 
Q 2819 -91 2034 -91 
Q 1250 -91 836 529 
Q 422 1150 422 2328 
Q 422 3509 836 4129 
Q 1250 4750 2034 4750 
z
" transform="scale(0.015625)"/>
       </defs>
       <use xlink:href="#DejaVuSans-30" transform="translate(0 0.78125)"/>
      </g>
     </g>
    </g>
    <g id="xtick_4">
     <g id="line2d_7">
      <path d="M 184.792515 201.025354 
L 184.792515 19.634646 
" clip-path="url(#p88f9b8d405)" style="fill: none; stroke: #000000; stroke-opacity: 0.1; stroke-width: 0.5; stroke-linecap: square"/>
     </g>
     <g id="line2d_8">
      <g>
       <use xlink:href="#m154b62c580" x="184.792515" y="201.025354" style="stroke: #000000; stroke-width: 0.5"/>
      </g>
     </g>
     <g id="text_4">
      <!-- $1$ -->
      <g transform="translate(182.232515 210.604104) scale(0.08 -0.08)">
       <use xlink:href="#DejaVuSans-31" transform="translate(0 0.09375)"/>
      </g>
     </g>
    </g>
    <g id="xtick_5">
     <g id="line2d_9">
      <path d="M 239.40233 201.025354 
L 239.40233 19.634646 
" clip-path="url(#p88f9b8d405)" style="fill: none; stroke: #000000; stroke-opacity: 0.1; stroke-width: 0.5; stroke-linecap: square"/>
     </g>
     <g id="line2d_10">
      <g>
       <use xlink:href="#m154b62c580" x="239.40233" y="201.025354" style="stroke: #000000; stroke-width: 0.5"/>
      </g>
     </g>
     <g id="text_5">
      <!-- $2$ -->
      <g transform="translate(236.84233 210.604104) scale(0.08 -0.08)">
       <use xlink:href="#DejaVuSans-32" transform="translate(0 0.78125)"/>
      </g>
     </g>
    </g>
   </g>
   <g id="matplotlib.axis_2">
    <g id="ytick_1">
     <g id="line2d_11">
      <path d="M 18.887899 179.694556 
L 285.165354 179.694556 
" clip-path="url(#p88f9b8d405)" style="fill: none; stroke: #000000; stroke-opacity: 0.1; stroke-width: 0.5; stroke-linecap: square"/>
     </g>
     <g id="line2d_12">
      <defs>
       <path id="mcbaf6db49e" d="M 0 0 
L 3 0 
" style="stroke: #000000; stroke-width: 0.5"/>
      </defs>
      <g>
       <use xlink:href="#mcbaf6db49e" x="18.887899" y="179.694556" style="stroke: #000000; stroke-width: 0.5"/>
      </g>
     </g>
     <g id="text_6">
      <!-- $-3$ -->
      <g transform="translate(3.547899 182.733931) scale(0.08 -0.08)">
       <defs>
        <path id="DejaVuSans-33" d="M 2597 2516 
Q 3050 2419 3304 2112 
Q 3559 1806 3559 1356 
Q 3559 666 3084 287 
Q 2609 -91 1734 -91 
Q 1441 -91 1130 -33 
Q 819 25 488 141 
L 488 750 
Q 750 597 1062 519 
Q 1375 441 1716 441 
Q 2309 441 2620 675 
Q 2931 909 2931 1356 
Q 2931 1769 2642 2001 
Q 2353 2234 1838 2234 
L 1294 2234 
L 1294 2753 
L 1863 2753 
Q 2328 2753 2575 2939 
Q 2822 3125 2822 3475 
Q 2822 3834 2567 4026 
Q 2313 4219 1838 4219 
Q 1578 4219 1281 4162 
Q 984 4106 628 3988 
L 628 4550 
Q 988 4650 1302 4700 
Q 1616 4750 1894 4750 
Q 2613 4750 3031 4423 
Q 3450 4097 3450 3541 
Q 3450 3153 3228 2886 
Q 3006 2619 2597 2516 
z
" transform="scale(0.015625)"/>
       </defs>
       <use xlink:href="#DejaVuSans-2212" transform="translate(0 0.78125)"/>
       <use xlink:href="#DejaVuSans-33" transform="translate(83.789062 0.78125)"/>
      </g>
     </g>
    </g>
    <g id="ytick_2">
     <g id="line2d_13">
      <path d="M 18.887899 152.766576 
L 285.165354 152.766576 
" clip-path="url(#p88f9b8d405)" style="fill: none; stroke: #000000; stroke-opacity: 0.1; stroke-width: 0.5; stroke-linecap: square"/>
     </g>
     <g id="line2d_14">
      <g>
       <use xlink:href="#mcbaf6db49e" x="18.887899" y="152.766576" style="stroke: #000000; stroke-width: 0.5"/>
      </g>
     </g>
     <g id="text_7">
      <!-- $-2$ -->
      <g transform="translate(3.547899 155.805951) scale(0.08 -0.08)">
       <use xlink:href="#DejaVuSans-2212" transform="translate(0 0.78125)"/>
       <use xlink:href="#DejaVuSans-32" transform="translate(83.789062 0.78125)"/>
      </g>
     </g>
    </g>
    <g id="ytick_3">
     <g id="line2d_15">
      <path d="M 18.887899 125.838597 
L 285.165354 125.838597 
" clip-path="url(#p88f9b8d405)" style="fill: none; stroke: #000000; stroke-opacity: 0.1; stroke-width: 0.5; stroke-linecap: square"/>
     </g>
     <g id="line2d_16">
      <g>
       <use xlink:href="#mcbaf6db49e" x="18.887899" y="125.838597" style="stroke: #000000; stroke-width: 0.5"/>
      </g>
     </g>
     <g id="text_8">
      <!-- $-1$ -->
      <g transform="translate(3.547899 128.877972) scale(0.08 -0.08)">
       <use xlink:href="#DejaVuSans-2212" transform="translate(0 0.09375)"/>
       <use xlink:href="#DejaVuSans-31" transform="translate(83.789062 0.09375)"/>
      </g>
     </g>
    </g>
    <g id="ytick_4">
     <g id="line2d_17">
      <path d="M 18.887899 98.910617 
L 285.165354 98.910617 
" clip-path="url(#p88f9b8d405)" style="fill: none; stroke: #000000; stroke-opacity: 0.1; stroke-width: 0.5; stroke-linecap: square"/>
     </g>
     <g id="line2d_18">
      <g>
       <use xlink:href="#mcbaf6db49e" x="18.887899" y="98.910617" style="stroke: #000000; stroke-width: 0.5"/>
      </g>
     </g>
     <g id="text_9">
      <!-- $0$ -->
      <g transform="translate(10.267899 101.949992) scale(0.08 -0.08)">
       <use xlink:href="#DejaVuSans-30" transform="translate(0 0.78125)"/>
      </g>
     </g>
    </g>
    <g id="ytick_5">
     <g id="line2d_19">
      <path d="M 18.887899 71.982638 
L 285.165354 71.982638 
" clip-path="url(#p88f9b8d405)" style="fill: none; stroke: #000000; stroke-opacity: 0.1; stroke-width: 0.5; stroke-linecap: square"/>
     </g>
     <g id="line2d_20">
      <g>
       <use xlink:href="#mcbaf6db49e" x="18.887899" y="71.982638" style="stroke: #000000; stroke-width: 0.5"/>
      </g>
     </g>
     <g id="text_10">
      <!-- $1$ -->
      <g transform="translate(10.267899 75.022013) scale(0.08 -0.08)">
       <use xlink:href="#DejaVuSans-31" transform="translate(0 0.09375)"/>
      </g>
     </g>
    </g>
    <g id="ytick_6">
     <g id="line2d_21">
      <path d="M 18.887899 45.054658 
L 285.165354 45.054658 
" clip-path="url(#p88f9b8d405)" style="fill: none; stroke: #000000; stroke-opacity: 0.1; stroke-width: 0.5; stroke-linecap: square"/>
     </g>
     <g id="line2d_22">
      <g>
       <use xlink:href="#mcbaf6db49e" x="18.887899" y="45.054658" style="stroke: #000000; stroke-width: 0.5"/>
      </g>
     </g>
     <g id="text_11">
      <!-- $2$ -->
      <g transform="translate(10.267899 48.094033) scale(0.08 -0.08)">
       <use xlink:href="#DejaVuSans-32" transform="translate(0 0.78125)"/>
      </g>
     </g>
    </g>
   </g>
   <g id="line2d_23">
    <path d="M 130.182701 52.941307 
L 130.734315 101.826786 
L 131.285929 92.323445 
L 131.837544 102.874269 
L 132.389158 114.460032 
L 132.940772 122.127156 
L 133.492387 68.310296 
L 134.044001 98.67294 
L 134.595615 56.265327 
L 135.147229 122.583534 
L 135.698844 129.830541 
L 136.250458 114.232324 
L 136.802072 70.538039 
L 137.353687 103.77456 
L 137.905301 102.255732 
L 138.456915 123.788659 
L 139.008529 159.873405 
L 139.560144 119.555651 
L 140.111758 109.824037 
L 140.663372 143.795842 
L 141.214987 96.772463 
L 141.766601 53.053023 
L 142.318215 135.491148 
L 142.869829 77.884099 
L 143.421444 77.7895 
L 143.973058 130.797988 
L 144.524672 96.777039 
L 145.076287 99.857652 
L 145.627901 92.202581 
L 146.179515 60.02017 
L 146.731129 88.950695 
L 147.282744 82.744617 
L 147.834358 94.23532 
L 148.385972 52.806543 
L 148.937587 69.755405 
L 149.489201 64.612024 
L 150.040815 106.147917 
L 150.592429 112.724312 
L 151.144044 113.931602 
L 151.695658 127.396739 
L 152.247272 65.377174 
L 152.798887 79.527022 
L 153.350501 145.910639 
L 153.902115 109.824247 
L 154.453729 114.762168 
L 155.005344 106.652665 
L 155.556958 119.265788 
L 156.108572 76.059954 
L 156.660187 124.457125 
L 157.211801 81.430346 
L 157.763415 65.140426 
L 158.315029 137.325074 
L 158.866644 106.242052 
L 159.418258 165.327834 
L 159.969872 93.774164 
L 160.521487 84.638926 
L 161.073101 164.437397 
L 161.624715 57.452001 
L 162.176329 75.869678 
L 162.727944 97.278467 
L 163.279558 83.83609 
L 163.831172 77.234103 
L 164.382787 100.856823 
L 164.934401 138.181778 
L 165.486015 86.849706 
L 166.037629 95.675276 
L 166.589244 67.694422 
L 167.140858 73.035951 
L 167.692472 68.33864 
L 168.244087 78.761013 
L 168.795701 95.549481 
L 169.347315 59.033397 
L 169.89893 127.833318 
L 170.450544 76.283195 
L 171.002158 78.993963 
L 171.553772 101.384235 
L 172.105387 68.070749 
L 172.657001 117.273608 
L 173.208615 71.048399 
L 173.76023 143.958445 
L 174.311844 111.317626 
L 174.863458 105.6514 
L 175.415072 92.735649 
L 175.966687 92.959344 
L 176.518301 110.541287 
L 177.069915 96.530251 
L 177.62153 162.443686 
L 178.173144 58.849945 
L 178.724758 54.929903 
L 179.276372 93.72779 
L 179.827987 95.400592 
L 180.379601 50.430004 
L 180.931215 102.954411 
L 181.48283 81.353877 
L 182.034444 106.062368 
L 182.586058 123.656794 
L 183.137672 126.154667 
L 183.689287 109.099198 
L 184.240901 77.521243 
L 184.792515 141.770858 
" clip-path="url(#p88f9b8d405)" style="fill: none; stroke: #4682b4; stroke-opacity: 0.5; stroke-width: 4"/>
   </g>
   <g id="PathCollection_1">
    <defs>
     <path id="m420df9e1c4" d="M -5 0 
L 5 0 
M 0 5 
L 0 -5 
" style="stroke: #ff4500; stroke-opacity: 0.5"/>
    </defs>
    <g clip-path="url(#p88f9b8d405)">
     <use xlink:href="#m420df9e1c4" x="130.182701" y="112.517382" style="fill: #ff4500; fill-opacity: 0.5; stroke: #ff4500; stroke-opacity: 0.5"/>
     <use xlink:href="#m420df9e1c4" x="130.734315" y="111.013136" style="fill: #ff4500; fill-opacity: 0.5; stroke: #ff4500; stroke-opacity: 0.5"/>
     <use xlink:href="#m420df9e1c4" x="131.285929" y="61.404157" style="fill: #ff4500; fill-opacity: 0.5; stroke: #ff4500; stroke-opacity: 0.5"/>
     <use xlink:href="#m420df9e1c4" x="131.837544" y="97.854984" style="fill: #ff4500; fill-opacity: 0.5; stroke: #ff4500; stroke-opacity: 0.5"/>
     <use xlink:href="#m420df9e1c4" x="132.389158" y="145.439297" style="fill: #ff4500; fill-opacity: 0.5; stroke: #ff4500; stroke-opacity: 0.5"/>
     <use xlink:href="#m420df9e1c4" x="132.940772" y="69.567745" style="fill: #ff4500; fill-opacity: 0.5; stroke: #ff4500; stroke-opacity: 0.5"/>
     <use xlink:href="#m420df9e1c4" x="133.492387" y="130.322964" style="fill: #ff4500; fill-opacity: 0.5; stroke: #ff4500; stroke-opacity: 0.5"/>
     <use xlink:href="#m420df9e1c4" x="134.044001" y="138.513182" style="fill: #ff4500; fill-opacity: 0.5; stroke: #ff4500; stroke-opacity: 0.5"/>
     <use xlink:href="#m420df9e1c4" x="134.595615" y="106.692619" style="fill: #ff4500; fill-opacity: 0.5; stroke: #ff4500; stroke-opacity: 0.5"/>
     <use xlink:href="#m420df9e1c4" x="135.147229" y="121.507366" style="fill: #ff4500; fill-opacity: 0.5; stroke: #ff4500; stroke-opacity: 0.5"/>
     <use xlink:href="#m420df9e1c4" x="135.698844" y="201.025354" style="fill: #ff4500; fill-opacity: 0.5; stroke: #ff4500; stroke-opacity: 0.5"/>
     <use xlink:href="#m420df9e1c4" x="136.250458" y="115.172495" style="fill: #ff4500; fill-opacity: 0.5; stroke: #ff4500; stroke-opacity: 0.5"/>
     <use xlink:href="#m420df9e1c4" x="136.802072" y="58.40027" style="fill: #ff4500; fill-opacity: 0.5; stroke: #ff4500; stroke-opacity: 0.5"/>
     <use xlink:href="#m420df9e1c4" x="137.353687" y="73.34683" style="fill: #ff4500; fill-opacity: 0.5; stroke: #ff4500; stroke-opacity: 0.5"/>
     <use xlink:href="#m420df9e1c4" x="137.905301" y="136.175837" style="fill: #ff4500; fill-opacity: 0.5; stroke: #ff4500; stroke-opacity: 0.5"/>
     <use xlink:href="#m420df9e1c4" x="138.456915" y="130.141867" style="fill: #ff4500; fill-opacity: 0.5; stroke: #ff4500; stroke-opacity: 0.5"/>
     <use xlink:href="#m420df9e1c4" x="139.008529" y="108.024891" style="fill: #ff4500; fill-opacity: 0.5; stroke: #ff4500; stroke-opacity: 0.5"/>
     <use xlink:href="#m420df9e1c4" x="139.560144" y="82.789286" style="fill: #ff4500; fill-opacity: 0.5; stroke: #ff4500; stroke-opacity: 0.5"/>
     <use xlink:href="#m420df9e1c4" x="140.111758" y="115.614244" style="fill: #ff4500; fill-opacity: 0.5; stroke: #ff4500; stroke-opacity: 0.5"/>
     <use xlink:href="#m420df9e1c4" x="140.663372" y="118.606064" style="fill: #ff4500; fill-opacity: 0.5; stroke: #ff4500; stroke-opacity: 0.5"/>
     <use xlink:href="#m420df9e1c4" x="141.214987" y="87.639911" style="fill: #ff4500; fill-opacity: 0.5; stroke: #ff4500; stroke-opacity: 0.5"/>
     <use xlink:href="#m420df9e1c4" x="141.766601" y="94.05285" style="fill: #ff4500; fill-opacity: 0.5; stroke: #ff4500; stroke-opacity: 0.5"/>
     <use xlink:href="#m420df9e1c4" x="142.318215" y="122.886748" style="fill: #ff4500; fill-opacity: 0.5; stroke: #ff4500; stroke-opacity: 0.5"/>
     <use xlink:href="#m420df9e1c4" x="142.869829" y="110.286271" style="fill: #ff4500; fill-opacity: 0.5; stroke: #ff4500; stroke-opacity: 0.5"/>
     <use xlink:href="#m420df9e1c4" x="143.421444" y="66.12637" style="fill: #ff4500; fill-opacity: 0.5; stroke: #ff4500; stroke-opacity: 0.5"/>
     <use xlink:href="#m420df9e1c4" x="143.973058" y="136.628507" style="fill: #ff4500; fill-opacity: 0.5; stroke: #ff4500; stroke-opacity: 0.5"/>
     <use xlink:href="#m420df9e1c4" x="144.524672" y="130.619418" style="fill: #ff4500; fill-opacity: 0.5; stroke: #ff4500; stroke-opacity: 0.5"/>
     <use xlink:href="#m420df9e1c4" x="145.076287" y="117.025036" style="fill: #ff4500; fill-opacity: 0.5; stroke: #ff4500; stroke-opacity: 0.5"/>
     <use xlink:href="#m420df9e1c4" x="145.627901" y="87.708002" style="fill: #ff4500; fill-opacity: 0.5; stroke: #ff4500; stroke-opacity: 0.5"/>
     <use xlink:href="#m420df9e1c4" x="146.179515" y="160.915114" style="fill: #ff4500; fill-opacity: 0.5; stroke: #ff4500; stroke-opacity: 0.5"/>
     <use xlink:href="#m420df9e1c4" x="146.731129" y="80.875387" style="fill: #ff4500; fill-opacity: 0.5; stroke: #ff4500; stroke-opacity: 0.5"/>
     <use xlink:href="#m420df9e1c4" x="147.282744" y="65.793497" style="fill: #ff4500; fill-opacity: 0.5; stroke: #ff4500; stroke-opacity: 0.5"/>
     <use xlink:href="#m420df9e1c4" x="147.834358" y="123.198694" style="fill: #ff4500; fill-opacity: 0.5; stroke: #ff4500; stroke-opacity: 0.5"/>
     <use xlink:href="#m420df9e1c4" x="148.385972" y="127.247046" style="fill: #ff4500; fill-opacity: 0.5; stroke: #ff4500; stroke-opacity: 0.5"/>
     <use xlink:href="#m420df9e1c4" x="148.937587" y="112.888807" style="fill: #ff4500; fill-opacity: 0.5; stroke: #ff4500; stroke-opacity: 0.5"/>
     <use xlink:href="#m420df9e1c4" x="149.489201" y="82.907705" style="fill: #ff4500; fill-opacity: 0.5; stroke: #ff4500; stroke-opacity: 0.5"/>
     <use xlink:href="#m420df9e1c4" x="150.040815" y="115.043612" style="fill: #ff4500; fill-opacity: 0.5; stroke: #ff4500; stroke-opacity: 0.5"/>
     <use xlink:href="#m420df9e1c4" x="150.592429" y="147.394612" style="fill: #ff4500; fill-opacity: 0.5; stroke: #ff4500; stroke-opacity: 0.5"/>
     <use xlink:href="#m420df9e1c4" x="151.144044" y="124.074723" style="fill: #ff4500; fill-opacity: 0.5; stroke: #ff4500; stroke-opacity: 0.5"/>
     <use xlink:href="#m420df9e1c4" x="151.695658" y="76.318024" style="fill: #ff4500; fill-opacity: 0.5; stroke: #ff4500; stroke-opacity: 0.5"/>
     <use xlink:href="#m420df9e1c4" x="152.247272" y="63.562378" style="fill: #ff4500; fill-opacity: 0.5; stroke: #ff4500; stroke-opacity: 0.5"/>
     <use xlink:href="#m420df9e1c4" x="152.798887" y="77.925315" style="fill: #ff4500; fill-opacity: 0.5; stroke: #ff4500; stroke-opacity: 0.5"/>
     <use xlink:href="#m420df9e1c4" x="153.350501" y="67.788761" style="fill: #ff4500; fill-opacity: 0.5; stroke: #ff4500; stroke-opacity: 0.5"/>
     <use xlink:href="#m420df9e1c4" x="153.902115" y="87.309228" style="fill: #ff4500; fill-opacity: 0.5; stroke: #ff4500; stroke-opacity: 0.5"/>
     <use xlink:href="#m420df9e1c4" x="154.453729" y="53.217824" style="fill: #ff4500; fill-opacity: 0.5; stroke: #ff4500; stroke-opacity: 0.5"/>
     <use xlink:href="#m420df9e1c4" x="155.005344" y="96.584201" style="fill: #ff4500; fill-opacity: 0.5; stroke: #ff4500; stroke-opacity: 0.5"/>
     <use xlink:href="#m420df9e1c4" x="155.556958" y="145.984139" style="fill: #ff4500; fill-opacity: 0.5; stroke: #ff4500; stroke-opacity: 0.5"/>
     <use xlink:href="#m420df9e1c4" x="156.108572" y="88.988561" style="fill: #ff4500; fill-opacity: 0.5; stroke: #ff4500; stroke-opacity: 0.5"/>
     <use xlink:href="#m420df9e1c4" x="156.660187" y="69.833552" style="fill: #ff4500; fill-opacity: 0.5; stroke: #ff4500; stroke-opacity: 0.5"/>
     <use xlink:href="#m420df9e1c4" x="157.211801" y="129.91797" style="fill: #ff4500; fill-opacity: 0.5; stroke: #ff4500; stroke-opacity: 0.5"/>
     <use xlink:href="#m420df9e1c4" x="157.763415" y="126.671872" style="fill: #ff4500; fill-opacity: 0.5; stroke: #ff4500; stroke-opacity: 0.5"/>
     <use xlink:href="#m420df9e1c4" x="158.315029" y="128.85258" style="fill: #ff4500; fill-opacity: 0.5; stroke: #ff4500; stroke-opacity: 0.5"/>
     <use xlink:href="#m420df9e1c4" x="158.866644" y="136.129438" style="fill: #ff4500; fill-opacity: 0.5; stroke: #ff4500; stroke-opacity: 0.5"/>
     <use xlink:href="#m420df9e1c4" x="159.418258" y="75.064557" style="fill: #ff4500; fill-opacity: 0.5; stroke: #ff4500; stroke-opacity: 0.5"/>
     <use xlink:href="#m420df9e1c4" x="159.969872" y="115.099798" style="fill: #ff4500; fill-opacity: 0.5; stroke: #ff4500; stroke-opacity: 0.5"/>
     <use xlink:href="#m420df9e1c4" x="160.521487" y="47.098231" style="fill: #ff4500; fill-opacity: 0.5; stroke: #ff4500; stroke-opacity: 0.5"/>
     <use xlink:href="#m420df9e1c4" x="161.073101" y="130.894774" style="fill: #ff4500; fill-opacity: 0.5; stroke: #ff4500; stroke-opacity: 0.5"/>
     <use xlink:href="#m420df9e1c4" x="161.624715" y="119.423546" style="fill: #ff4500; fill-opacity: 0.5; stroke: #ff4500; stroke-opacity: 0.5"/>
     <use xlink:href="#m420df9e1c4" x="162.176329" y="119.924709" style="fill: #ff4500; fill-opacity: 0.5; stroke: #ff4500; stroke-opacity: 0.5"/>
     <use xlink:href="#m420df9e1c4" x="162.727944" y="117.987941" style="fill: #ff4500; fill-opacity: 0.5; stroke: #ff4500; stroke-opacity: 0.5"/>
     <use xlink:href="#m420df9e1c4" x="163.279558" y="78.692224" style="fill: #ff4500; fill-opacity: 0.5; stroke: #ff4500; stroke-opacity: 0.5"/>
     <use xlink:href="#m420df9e1c4" x="163.831172" y="85.165539" style="fill: #ff4500; fill-opacity: 0.5; stroke: #ff4500; stroke-opacity: 0.5"/>
     <use xlink:href="#m420df9e1c4" x="164.382787" y="94.959296" style="fill: #ff4500; fill-opacity: 0.5; stroke: #ff4500; stroke-opacity: 0.5"/>
     <use xlink:href="#m420df9e1c4" x="164.934401" y="131.310716" style="fill: #ff4500; fill-opacity: 0.5; stroke: #ff4500; stroke-opacity: 0.5"/>
     <use xlink:href="#m420df9e1c4" x="165.486015" y="127.092723" style="fill: #ff4500; fill-opacity: 0.5; stroke: #ff4500; stroke-opacity: 0.5"/>
     <use xlink:href="#m420df9e1c4" x="166.037629" y="120.071965" style="fill: #ff4500; fill-opacity: 0.5; stroke: #ff4500; stroke-opacity: 0.5"/>
     <use xlink:href="#m420df9e1c4" x="166.589244" y="85.504808" style="fill: #ff4500; fill-opacity: 0.5; stroke: #ff4500; stroke-opacity: 0.5"/>
     <use xlink:href="#m420df9e1c4" x="167.140858" y="121.482926" style="fill: #ff4500; fill-opacity: 0.5; stroke: #ff4500; stroke-opacity: 0.5"/>
     <use xlink:href="#m420df9e1c4" x="167.692472" y="84.205409" style="fill: #ff4500; fill-opacity: 0.5; stroke: #ff4500; stroke-opacity: 0.5"/>
     <use xlink:href="#m420df9e1c4" x="168.244087" y="93.224034" style="fill: #ff4500; fill-opacity: 0.5; stroke: #ff4500; stroke-opacity: 0.5"/>
     <use xlink:href="#m420df9e1c4" x="168.795701" y="100.199682" style="fill: #ff4500; fill-opacity: 0.5; stroke: #ff4500; stroke-opacity: 0.5"/>
     <use xlink:href="#m420df9e1c4" x="169.347315" y="118.017267" style="fill: #ff4500; fill-opacity: 0.5; stroke: #ff4500; stroke-opacity: 0.5"/>
     <use xlink:href="#m420df9e1c4" x="169.89893" y="87.653712" style="fill: #ff4500; fill-opacity: 0.5; stroke: #ff4500; stroke-opacity: 0.5"/>
     <use xlink:href="#m420df9e1c4" x="170.450544" y="117.842479" style="fill: #ff4500; fill-opacity: 0.5; stroke: #ff4500; stroke-opacity: 0.5"/>
     <use xlink:href="#m420df9e1c4" x="171.002158" y="72.863372" style="fill: #ff4500; fill-opacity: 0.5; stroke: #ff4500; stroke-opacity: 0.5"/>
     <use xlink:href="#m420df9e1c4" x="171.553772" y="102.246494" style="fill: #ff4500; fill-opacity: 0.5; stroke: #ff4500; stroke-opacity: 0.5"/>
     <use xlink:href="#m420df9e1c4" x="172.105387" y="95.407637" style="fill: #ff4500; fill-opacity: 0.5; stroke: #ff4500; stroke-opacity: 0.5"/>
     <use xlink:href="#m420df9e1c4" x="172.657001" y="94.235274" style="fill: #ff4500; fill-opacity: 0.5; stroke: #ff4500; stroke-opacity: 0.5"/>
     <use xlink:href="#m420df9e1c4" x="173.208615" y="109.703707" style="fill: #ff4500; fill-opacity: 0.5; stroke: #ff4500; stroke-opacity: 0.5"/>
     <use xlink:href="#m420df9e1c4" x="173.76023" y="87.911784" style="fill: #ff4500; fill-opacity: 0.5; stroke: #ff4500; stroke-opacity: 0.5"/>
     <use xlink:href="#m420df9e1c4" x="174.311844" y="134.33213" style="fill: #ff4500; fill-opacity: 0.5; stroke: #ff4500; stroke-opacity: 0.5"/>
     <use xlink:href="#m420df9e1c4" x="174.863458" y="98.931085" style="fill: #ff4500; fill-opacity: 0.5; stroke: #ff4500; stroke-opacity: 0.5"/>
     <use xlink:href="#m420df9e1c4" x="175.415072" y="87.599774" style="fill: #ff4500; fill-opacity: 0.5; stroke: #ff4500; stroke-opacity: 0.5"/>
     <use xlink:href="#m420df9e1c4" x="175.966687" y="50.632855" style="fill: #ff4500; fill-opacity: 0.5; stroke: #ff4500; stroke-opacity: 0.5"/>
     <use xlink:href="#m420df9e1c4" x="176.518301" y="114.390337" style="fill: #ff4500; fill-opacity: 0.5; stroke: #ff4500; stroke-opacity: 0.5"/>
     <use xlink:href="#m420df9e1c4" x="177.069915" y="92.979714" style="fill: #ff4500; fill-opacity: 0.5; stroke: #ff4500; stroke-opacity: 0.5"/>
     <use xlink:href="#m420df9e1c4" x="177.62153" y="124.464314" style="fill: #ff4500; fill-opacity: 0.5; stroke: #ff4500; stroke-opacity: 0.5"/>
     <use xlink:href="#m420df9e1c4" x="178.173144" y="133.788088" style="fill: #ff4500; fill-opacity: 0.5; stroke: #ff4500; stroke-opacity: 0.5"/>
     <use xlink:href="#m420df9e1c4" x="178.724758" y="140.740713" style="fill: #ff4500; fill-opacity: 0.5; stroke: #ff4500; stroke-opacity: 0.5"/>
     <use xlink:href="#m420df9e1c4" x="179.276372" y="87.076378" style="fill: #ff4500; fill-opacity: 0.5; stroke: #ff4500; stroke-opacity: 0.5"/>
     <use xlink:href="#m420df9e1c4" x="179.827987" y="64.230822" style="fill: #ff4500; fill-opacity: 0.5; stroke: #ff4500; stroke-opacity: 0.5"/>
     <use xlink:href="#m420df9e1c4" x="180.379601" y="137.446841" style="fill: #ff4500; fill-opacity: 0.5; stroke: #ff4500; stroke-opacity: 0.5"/>
     <use xlink:href="#m420df9e1c4" x="180.931215" y="78.422356" style="fill: #ff4500; fill-opacity: 0.5; stroke: #ff4500; stroke-opacity: 0.5"/>
     <use xlink:href="#m420df9e1c4" x="181.48283" y="137.113104" style="fill: #ff4500; fill-opacity: 0.5; stroke: #ff4500; stroke-opacity: 0.5"/>
     <use xlink:href="#m420df9e1c4" x="182.034444" y="110.376613" style="fill: #ff4500; fill-opacity: 0.5; stroke: #ff4500; stroke-opacity: 0.5"/>
     <use xlink:href="#m420df9e1c4" x="182.586058" y="83.917311" style="fill: #ff4500; fill-opacity: 0.5; stroke: #ff4500; stroke-opacity: 0.5"/>
     <use xlink:href="#m420df9e1c4" x="183.137672" y="110.459113" style="fill: #ff4500; fill-opacity: 0.5; stroke: #ff4500; stroke-opacity: 0.5"/>
     <use xlink:href="#m420df9e1c4" x="183.689287" y="81.035364" style="fill: #ff4500; fill-opacity: 0.5; stroke: #ff4500; stroke-opacity: 0.5"/>
     <use xlink:href="#m420df9e1c4" x="184.240901" y="132.949924" style="fill: #ff4500; fill-opacity: 0.5; stroke: #ff4500; stroke-opacity: 0.5"/>
     <use xlink:href="#m420df9e1c4" x="184.792515" y="84.674112" style="fill: #ff4500; fill-opacity: 0.5; stroke: #ff4500; stroke-opacity: 0.5"/>
    </g>
   </g>
   <g id="patch_3">
    <path d="M 18.887899 201.025354 
L 18.887899 19.634646 
" style="fill: none; stroke: #000000; stroke-linejoin: miter; stroke-linecap: square"/>
   </g>
   <g id="patch_4">
    <path d="M 18.887899 201.025354 
L 285.165354 201.025354 
" style="fill: none; stroke: #000000; stroke-linejoin: miter; stroke-linecap: square"/>
   </g>
   <g id="patch_5">
    <path d="M 132.913192 152.766576 
L 130.182701 152.766576 
L 130.182701 147.38098 
L 132.913192 147.38098 
L 132.913192 152.766576 
" clip-path="url(#p88f9b8d405)" style="fill: #008000; fill-opacity: 0.5"/>
   </g>
   <g id="patch_6">
    <path d="M 130.182701 147.38098 
L 130.182701 147.38098 
L 130.182701 141.995385 
L 130.182701 141.995385 
L 130.182701 147.38098 
" clip-path="url(#p88f9b8d405)" style="fill: #008000; fill-opacity: 0.5"/>
   </g>
   <g id="patch_7">
    <path d="M 130.182701 141.995385 
L 130.182701 141.995385 
L 130.182701 136.609789 
L 130.182701 136.609789 
L 130.182701 141.995385 
" clip-path="url(#p88f9b8d405)" style="fill: #008000; fill-opacity: 0.5"/>
   </g>
   <g id="patch_8">
    <path d="M 135.643682 136.609789 
L 130.182701 136.609789 
L 130.182701 131.224193 
L 135.643682 131.224193 
L 135.643682 136.609789 
" clip-path="url(#p88f9b8d405)" style="fill: #008000; fill-opacity: 0.5"/>
   </g>
   <g id="patch_9">
    <path d="M 143.835154 131.224193 
L 130.182701 131.224193 
L 130.182701 125.838597 
L 143.835154 125.838597 
L 143.835154 131.224193 
" clip-path="url(#p88f9b8d405)" style="fill: #008000; fill-opacity: 0.5"/>
   </g>
   <g id="patch_10">
    <path d="M 138.374173 125.838597 
L 130.182701 125.838597 
L 130.182701 120.453001 
L 138.374173 120.453001 
L 138.374173 125.838597 
" clip-path="url(#p88f9b8d405)" style="fill: #008000; fill-opacity: 0.5"/>
   </g>
   <g id="patch_11">
    <path d="M 149.296136 120.453001 
L 130.182701 120.453001 
L 130.182701 115.067405 
L 149.296136 115.067405 
L 149.296136 120.453001 
" clip-path="url(#p88f9b8d405)" style="fill: #008000; fill-opacity: 0.5"/>
   </g>
   <g id="patch_12">
    <path d="M 165.67908 115.067405 
L 130.182701 115.067405 
L 130.182701 109.681809 
L 165.67908 109.681809 
L 165.67908 115.067405 
" clip-path="url(#p88f9b8d405)" style="fill: #008000; fill-opacity: 0.5"/>
   </g>
   <g id="patch_13">
    <path d="M 171.140062 109.681809 
L 130.182701 109.681809 
L 130.182701 104.296213 
L 171.140062 104.296213 
L 171.140062 109.681809 
" clip-path="url(#p88f9b8d405)" style="fill: #008000; fill-opacity: 0.5"/>
   </g>
   <g id="patch_14">
    <path d="M 160.218099 104.296213 
L 130.182701 104.296213 
L 130.182701 98.910617 
L 160.218099 98.910617 
L 160.218099 104.296213 
" clip-path="url(#p88f9b8d405)" style="fill: #008000; fill-opacity: 0.5"/>
   </g>
   <g id="patch_15">
    <path d="M 141.104664 98.910617 
L 130.182701 98.910617 
L 130.182701 93.525021 
L 141.104664 93.525021 
L 141.104664 98.910617 
" clip-path="url(#p88f9b8d405)" style="fill: #008000; fill-opacity: 0.5"/>
   </g>
   <g id="patch_16">
    <path d="M 143.835154 93.525021 
L 130.182701 93.525021 
L 130.182701 88.139426 
L 143.835154 88.139426 
L 143.835154 93.525021 
" clip-path="url(#p88f9b8d405)" style="fill: #008000; fill-opacity: 0.5"/>
   </g>
   <g id="patch_17">
    <path d="M 141.104664 88.139426 
L 130.182701 88.139426 
L 130.182701 82.75383 
L 141.104664 82.75383 
L 141.104664 88.139426 
" clip-path="url(#p88f9b8d405)" style="fill: #008000; fill-opacity: 0.5"/>
   </g>
   <g id="patch_18">
    <path d="M 154.757117 82.75383 
L 130.182701 82.75383 
L 130.182701 77.368234 
L 154.757117 77.368234 
L 154.757117 82.75383 
" clip-path="url(#p88f9b8d405)" style="fill: #008000; fill-opacity: 0.5"/>
   </g>
   <g id="patch_19">
    <path d="M 146.565645 77.368234 
L 130.182701 77.368234 
L 130.182701 71.982638 
L 146.565645 71.982638 
L 146.565645 77.368234 
" clip-path="url(#p88f9b8d405)" style="fill: #008000; fill-opacity: 0.5"/>
   </g>
   <g id="patch_20">
    <path d="M 141.104664 71.982638 
L 130.182701 71.982638 
L 130.182701 66.597042 
L 141.104664 66.597042 
L 141.104664 71.982638 
" clip-path="url(#p88f9b8d405)" style="fill: #008000; fill-opacity: 0.5"/>
   </g>
   <g id="patch_21">
    <path d="M 149.296136 66.597042 
L 130.182701 66.597042 
L 130.182701 61.211446 
L 149.296136 61.211446 
L 149.296136 66.597042 
" clip-path="url(#p88f9b8d405)" style="fill: #008000; fill-opacity: 0.5"/>
   </g>
   <g id="patch_22">
    <path d="M 130.182701 61.211446 
L 130.182701 61.211446 
L 130.182701 55.82585 
L 130.182701 55.82585 
L 130.182701 61.211446 
" clip-path="url(#p88f9b8d405)" style="fill: #008000; fill-opacity: 0.5"/>
   </g>
   <g id="patch_23">
    <path d="M 135.643682 55.82585 
L 130.182701 55.82585 
L 130.182701 50.440254 
L 135.643682 50.440254 
L 135.643682 55.82585 
" clip-path="url(#p88f9b8d405)" style="fill: #008000; fill-opacity: 0.5"/>
   </g>
   <g id="patch_24">
    <path d="M 130.182701 50.440254 
L 130.182701 50.440254 
L 130.182701 45.054658 
L 130.182701 45.054658 
L 130.182701 50.440254 
" clip-path="url(#p88f9b8d405)" style="fill: #008000; fill-opacity: 0.5"/>
   </g>
   <g id="patch_25">
    <path d="M 130.182701 45.054658 
L 130.182701 45.054658 
L 130.182701 39.669062 
L 130.182701 39.669062 
L 130.182701 45.054658 
" clip-path="url(#p88f9b8d405)" style="fill: #008000; fill-opacity: 0.5"/>
   </g>
   <g id="patch_26">
    <path d="M 130.182701 39.669062 
L 130.182701 39.669062 
L 130.182701 34.283467 
L 130.182701 34.283467 
L 130.182701 39.669062 
" clip-path="url(#p88f9b8d405)" style="fill: #008000; fill-opacity: 0.5"/>
   </g>
   <g id="patch_27">
    <path d="M 132.913192 34.283467 
L 130.182701 34.283467 
L 130.182701 28.897871 
L 132.913192 28.897871 
L 132.913192 34.283467 
" clip-path="url(#p88f9b8d405)" style="fill: #008000; fill-opacity: 0.5"/>
   </g>
   <g id="patch_28">
    <path d="M 132.913192 28.897871 
L 130.182701 28.897871 
L 130.182701 23.512275 
L 132.913192 23.512275 
L 132.913192 28.897871 
" clip-path="url(#p88f9b8d405)" style="fill: #008000; fill-opacity: 0.5"/>
   </g>
   <g id="text_12">
    <!-- My title -->
    <g transform="translate(125.934127 13.634646) scale(0.14 -0.14)">
     <defs>
      <path id="DejaVuSans-4d" d="M 628 4666 
L 1569 4666 
L 2759 1491 
L 3956 4666 
L 4897 4666 
L 4897 0 
L 4281 0 
L 4281 4097 
L 3078 897 
L 2444 897 
L 1241 4097 
L 1241 0 
L 628 0 
L 628 4666 
z
" transform="scale(0.015625)"/>
      <path id="DejaVuSans-79" d="M 2059 -325 
Q 1816 -950 1584 -1140 
Q 1353 -1331 966 -1331 
L 506 -1331 
L 506 -850 
L 844 -850 
Q 1081 -850 1212 -737 
Q 1344 -625 1503 -206 
L 1606 56 
L 191 3500 
L 800 3500 
L 1894 763 
L 2988 3500 
L 3597 3500 
L 2059 -325 
z
" transform="scale(0.015625)"/>
      <path id="DejaVuSans-20" transform="scale(0.015625)"/>
      <path id="DejaVuSans-74" d="M 1172 4494 
L 1172 3500 
L 2356 3500 
L 2356 3053 
L 1172 3053 
L 1172 1153 
Q 1172 725 1289 603 
Q 1406 481 1766 481 
L 2356 481 
L 2356 0 
L 1766 0 
Q 1100 0 847 248 
Q 594 497 594 1153 
L 594 3053 
L 172 3053 
L 172 3500 
L 594 3500 
L 594 4494 
L 1172 4494 
z
" transform="scale(0.015625)"/>
      <path id="DejaVuSans-69" d="M 603 3500 
L 1178 3500 
L 1178 0 
L 603 0 
L 603 3500 
z
M 603 4863 
L 1178 4863 
L 1178 4134 
L 603 4134 
L 603 4863 
z
" transform="scale(0.015625)"/>
      <path id="DejaVuSans-6c" d="M 603 4863 
L 1178 4863 
L 1178 0 
L 603 0 
L 603 4863 
z
" transform="scale(0.015625)"/>
      <path id="DejaVuSans-65" d="M 3597 1894 
L 3597 1613 
L 953 1613 
Q 991 1019 1311 708 
Q 1631 397 2203 397 
Q 2534 397 2845 478 
Q 3156 559 3463 722 
L 3463 178 
Q 3153 47 2828 -22 
Q 2503 -91 2169 -91 
Q 1331 -91 842 396 
Q 353 884 353 1716 
Q 353 2575 817 3079 
Q 1281 3584 2069 3584 
Q 2775 3584 3186 3129 
Q 3597 2675 3597 1894 
z
M 3022 2063 
Q 3016 2534 2758 2815 
Q 2500 3097 2075 3097 
Q 1594 3097 1305 2825 
Q 1016 2553 972 2059 
L 3022 2063 
z
" transform="scale(0.015625)"/>
     </defs>
     <use xlink:href="#DejaVuSans-4d"/>
     <use xlink:href="#DejaVuSans-79" transform="translate(86.279297 0)"/>
     <use xlink:href="#DejaVuSans-20" transform="translate(145.458984 0)"/>
     <use xlink:href="#DejaVuSans-74" transform="translate(177.246094 0)"/>
     <use xlink:href="#DejaVuSans-69" transform="translate(216.455078 0)"/>
     <use xlink:href="#DejaVuSans-74" transform="translate(244.238281 0)"/>
     <use xlink:href="#DejaVuSans-6c" transform="translate(283.447266 0)"/>
     <use xlink:href="#DejaVuSans-65" transform="translate(311.230469 0)"/>
    </g>
   </g>
   <g id="PathCollection_2">
    <defs>
     <path id="mb57c2186de" d="M 0 0 
C 0 0 0 0 0 0 
C 0 0 0 0 0 0 
C 0 0 0 0 0 0 
C 0 0 0 0 0 0 
C 0 0 0 0 0 0 
C 0 0 0 0 0 0 
C 0 0 0 0 0 0 
C 0 0 0 0 0 0 
z
" style="stroke: #000000; stroke-opacity: 0"/>
    </defs>
    <g clip-path="url(#p88f9b8d405)">
     <use xlink:href="#mb57c2186de" x="26.424053" y="97.564218" style="fill: #008000; fill-opacity: 0; stroke: #000000; stroke-opacity: 0"/>
     <use xlink:href="#mb57c2186de" x="37.346016" y="98.910617" style="fill: #008000; fill-opacity: 0; stroke: #000000; stroke-opacity: 0"/>
     <use xlink:href="#mb57c2186de" x="48.267979" y="98.910617" style="fill: #008000; fill-opacity: 0; stroke: #000000; stroke-opacity: 0"/>
     <use xlink:href="#mb57c2186de" x="59.189942" y="96.217819" style="fill: #008000; fill-opacity: 0; stroke: #000000; stroke-opacity: 0"/>
     <use xlink:href="#mb57c2186de" x="70.111905" y="92.178622" style="fill: #008000; fill-opacity: 0; stroke: #000000; stroke-opacity: 0"/>
     <use xlink:href="#mb57c2186de" x="81.033868" y="94.87142" style="fill: #008000; fill-opacity: 0; stroke: #000000; stroke-opacity: 0"/>
     <use xlink:href="#mb57c2186de" x="91.955831" y="89.485824" style="fill: #008000; fill-opacity: 0; stroke: #000000; stroke-opacity: 0"/>
     <use xlink:href="#mb57c2186de" x="102.877794" y="81.407431" style="fill: #008000; fill-opacity: 0; stroke: #000000; stroke-opacity: 0"/>
     <use xlink:href="#mb57c2186de" x="113.799756" y="78.714633" style="fill: #008000; fill-opacity: 0; stroke: #000000; stroke-opacity: 0"/>
     <use xlink:href="#mb57c2186de" x="124.721719" y="84.100229" style="fill: #008000; fill-opacity: 0; stroke: #000000; stroke-opacity: 0"/>
     <use xlink:href="#mb57c2186de" x="135.643682" y="93.525021" style="fill: #008000; fill-opacity: 0; stroke: #000000; stroke-opacity: 0"/>
     <use xlink:href="#mb57c2186de" x="146.565645" y="92.178622" style="fill: #008000; fill-opacity: 0; stroke: #000000; stroke-opacity: 0"/>
     <use xlink:href="#mb57c2186de" x="157.487608" y="93.525021" style="fill: #008000; fill-opacity: 0; stroke: #000000; stroke-opacity: 0"/>
     <use xlink:href="#mb57c2186de" x="168.409571" y="86.793027" style="fill: #008000; fill-opacity: 0; stroke: #000000; stroke-opacity: 0"/>
     <use xlink:href="#mb57c2186de" x="179.331534" y="90.832223" style="fill: #008000; fill-opacity: 0; stroke: #000000; stroke-opacity: 0"/>
     <use xlink:href="#mb57c2186de" x="190.253497" y="93.525021" style="fill: #008000; fill-opacity: 0; stroke: #000000; stroke-opacity: 0"/>
     <use xlink:href="#mb57c2186de" x="201.17546" y="89.485824" style="fill: #008000; fill-opacity: 0; stroke: #000000; stroke-opacity: 0"/>
     <use xlink:href="#mb57c2186de" x="212.097423" y="98.910617" style="fill: #008000; fill-opacity: 0; stroke: #000000; stroke-opacity: 0"/>
     <use xlink:href="#mb57c2186de" x="223.019385" y="96.217819" style="fill: #008000; fill-opacity: 0; stroke: #000000; stroke-opacity: 0"/>
     <use xlink:href="#mb57c2186de" x="233.941348" y="98.910617" style="fill: #008000; fill-opacity: 0; stroke: #000000; stroke-opacity: 0"/>
     <use xlink:href="#mb57c2186de" x="244.863311" y="98.910617" style="fill: #008000; fill-opacity: 0; stroke: #000000; stroke-opacity: 0"/>
     <use xlink:href="#mb57c2186de" x="255.785274" y="98.910617" style="fill: #008000; fill-opacity: 0; stroke: #000000; stroke-opacity: 0"/>
     <use xlink:href="#mb57c2186de" x="266.707237" y="97.564218" style="fill: #008000; fill-opacity: 0; stroke: #000000; stroke-opacity: 0"/>
     <use xlink:href="#mb57c2186de" x="277.6292" y="97.564218" style="fill: #008000; fill-opacity: 0; stroke: #000000; stroke-opacity: 0"/>
    </g>
   </g>
   <g id="legend_1">
    <g id="patch_29">
     <path d="M 242.540354 61.262146 
L 281.165354 61.262146 
L 281.165354 23.634646 
L 242.540354 23.634646 
z
" style="fill: #ffffff; stroke: #000000; stroke-linejoin: miter"/>
    </g>
    <g id="line2d_24">
     <path d="M 245.740354 30.113396 
L 253.740354 30.113396 
L 261.740354 30.113396 
" style="fill: none; stroke: #4682b4; stroke-opacity: 0.5; stroke-linejoin: miter"/>
    </g>
    <g id="text_13">
     <!-- y1 -->
     <g transform="translate(268.140354 32.913396) scale(0.08 -0.08)">
      <use xlink:href="#DejaVuSans-79"/>
      <use xlink:href="#DejaVuSans-31" transform="translate(59.179688 0)"/>
     </g>
    </g>
    <g id="line2d_25">
     <path d="M 245.740354 41.855896 
L 253.740354 41.855896 
L 261.740354 41.855896 
" style="fill: none"/>
     <defs>
      <path id="m9e0f15de8d" d="M -3.2 0 
L 3.2 0 
M 0 3.2 
L 0 -3.2 
" style="stroke: #000000; stroke-opacity: 0.5; stroke-width: 0.64"/>
     </defs>
     <g>
      <use xlink:href="#m9e0f15de8d" x="253.740354" y="41.855896" style="fill: #ff4500; fill-opacity: 0.5; stroke: #000000; stroke-opacity: 0.5; stroke-width: 0.64"/>
     </g>
    </g>
    <g id="text_14">
     <!-- y2 -->
     <g transform="translate(268.140354 44.655896) scale(0.08 -0.08)">
      <use xlink:href="#DejaVuSans-79"/>
      <use xlink:href="#DejaVuSans-32" transform="translate(59.179688 0)"/>
     </g>
    </g>
    <g id="patch_30">
     <path d="M 245.740354 56.398396 
L 261.740354 56.398396 
L 261.740354 50.798396 
L 245.740354 50.798396 
z
" style="fill: #008000; fill-opacity: 0.5"/>
    </g>
    <g id="text_15">
     <!-- y3 -->
     <g transform="translate(268.140354 56.398396) scale(0.08 -0.08)">
      <use xlink:href="#DejaVuSans-79"/>
      <use xlink:href="#DejaVuSans-33" transform="translate(59.179688 0)"/>
     </g>
    </g>
   </g>
  </g>
 </g>
 <defs>
  <clipPath id="p88f9b8d405">
   <rect x="18.887899" y="19.634646" width="266.277455" height="181.390709"/>
  </clipPath>
 </defs>
</svg>
